<svg width="94" height="94" viewBox="0 0 94 94" fill="none" xmlns="http://www.w3.org/2000/svg">
<g filter="url(#filter0_d)">
<circle cx="47" cy="47" r="29" fill="#FD435A"/>
</g>
<path d="M39.2482 57.1443H36.8317V54.7265H39.2482V57.1443ZM36.8317 37.8145H39.2482V40.231H36.8317V37.8145ZM53.7437 37.8145H56.1615V40.231H53.7437V37.8145ZM34.4138 54.7265V57.1443C34.4138 58.4611 35.5131 59.5609 36.8317 59.5609H39.2482C40.5663 59.5609 41.6661 58.4611 41.6661 57.1443H47.7053C48.3673 57.1443 48.9138 56.5979 48.9138 55.9345C48.9138 55.2725 48.3673 54.7265 47.7053 54.7265H41.6661C41.6661 53.4079 40.5663 52.3095 39.2482 52.3095V42.6489C40.5663 42.6489 41.6661 41.5496 41.6661 40.231H51.3267C51.3267 41.5496 52.4251 42.6489 53.7437 42.6489V48.6881C53.7437 49.3506 54.2897 49.8966 54.9517 49.8966C55.6151 49.8966 56.1615 49.3506 56.1615 48.6881V42.6489C57.4783 42.6489 58.5781 41.5496 58.5781 40.231V37.8145C58.5781 36.4963 57.4783 35.3966 56.1615 35.3966H53.7437C52.4251 35.3966 51.3267 36.4963 51.3267 37.8145H41.6661C41.6661 36.4963 40.5663 35.3966 39.2482 35.3966H36.8317C35.5131 35.3966 34.4138 36.4963 34.4138 37.8145V40.231C34.4138 41.5496 35.5131 42.6489 36.8317 42.6489V52.3095C35.5131 52.3095 34.4138 53.4079 34.4138 54.7265Z" fill="white"/>
<path d="M53.9308 54.3785C53.6997 54.4954 53.5121 54.683 53.3952 54.9136L53.1456 55.4125L52.2901 53.2728L54.4297 54.1283L53.9308 54.3785ZM50.5677 49.9813C50.4164 49.9233 50.2564 49.8952 50.0951 49.9002C49.4431 49.9161 48.9147 50.4562 48.9147 51.1087C48.9147 51.2596 48.9419 51.4105 48.9977 51.551L51.8972 58.8032C52.0807 59.26 52.5252 59.5608 53.0182 59.5608C53.4763 59.5608 53.8959 59.3012 54.0994 58.8916L55.3754 56.3586L57.9084 55.0826C58.3184 54.8787 58.5781 54.4591 58.5781 54.0015C58.5781 53.5085 58.2772 53.0635 57.8204 52.88L50.5677 49.9813Z" fill="white"/>
<defs>
<filter id="filter0_d" x="0" y="0" width="94" height="94" filterUnits="userSpaceOnUse" color-interpolation-filters="sRGB">
<feFlood flood-opacity="0" result="BackgroundImageFix"/>
<feColorMatrix in="SourceAlpha" type="matrix" values="0 0 0 0 0 0 0 0 0 0 0 0 0 0 0 0 0 0 127 0"/>
<feMorphology radius="1" operator="dilate" in="SourceAlpha" result="effect1_dropShadow"/>
<feOffset/>
<feGaussianBlur stdDeviation="8.5"/>
<feColorMatrix type="matrix" values="0 0 0 0 1 0 0 0 0 0.196536 0 0 0 0 0.41785 0 0 0 0.34 0"/>
<feBlend mode="normal" in2="BackgroundImageFix" result="effect1_dropShadow"/>
<feBlend mode="normal" in="SourceGraphic" in2="effect1_dropShadow" result="shape"/>
</filter>
</defs>
</svg>
