<svg width="94" height="94" viewBox="0 0 94 94" fill="none" xmlns="http://www.w3.org/2000/svg">
<g filter="url(#filter0_d)">
<circle cx="47" cy="47" r="29" fill="#FD435A"/>
</g>
<g clip-path="url(#clip0)">
<path d="M57.7079 49.167C57.4896 48.6271 56.8748 48.3661 56.3348 48.5845C55.7948 48.8028 55.534 49.4175 55.7523 49.9576L56.9944 53.0302L53.3053 51.4039C53.0382 51.2862 52.7343 51.2844 52.4659 51.3989C51.2051 51.9369 49.8545 52.2096 48.4515 52.2096C42.8051 52.2096 39.0121 47.7886 39.0121 43.6595C39.0121 38.9449 43.2466 35.1094 48.4515 35.1094C53.6565 35.1094 57.891 38.9449 57.891 43.6595C57.891 44.0273 57.8567 44.4678 57.7971 44.8678C57.7111 45.4439 58.1085 45.9806 58.6846 46.0666C59.2608 46.1527 59.7974 45.7552 59.8833 45.179C59.9588 44.6733 60.0004 44.1336 60.0004 43.6595C60.0004 40.7944 58.7871 38.1062 56.5841 36.0899C54.4071 34.0973 51.5189 33 48.4515 33C45.3842 33 42.4961 34.0973 40.319 36.0898C38.3503 37.8916 37.1729 40.2303 36.9445 42.752C34.4683 44.3918 33.0004 47.0195 33.0004 49.8499C33.0004 51.618 33.5574 53.2956 34.6178 54.7393L33.0773 58.55C32.9164 58.9479 33.0127 59.4037 33.321 59.7025C33.5218 59.8973 33.7865 60 34.0553 60C34.1989 59.9999 34.3437 59.9707 34.4805 59.9104L38.9222 57.9523C40.0396 58.3682 41.2207 58.5788 42.4398 58.5788C42.4662 58.5788 42.492 58.5768 42.5179 58.5749C44.2812 58.5615 45.9954 58.0977 47.4801 57.2298C48.81 56.4522 49.9039 55.3842 50.6708 54.1228C51.4196 53.9883 52.1514 53.7852 52.8618 53.5137L58.5202 56.008C58.6571 56.0683 58.8018 56.0977 58.9454 56.0977C59.2142 56.0976 59.4789 55.9949 59.6798 55.8001C59.988 55.5013 60.0844 55.0456 59.9235 54.6476L57.7079 49.167ZM42.4399 56.4668C42.4255 56.4668 42.4115 56.4683 42.3972 56.4689C41.3202 56.4634 40.2837 56.2518 39.3156 55.8387C39.0473 55.7241 38.7434 55.726 38.4763 55.8438L36.0064 56.9325L36.8032 54.9616C36.9505 54.5972 36.8829 54.1811 36.628 53.8821C35.6347 52.7168 35.1098 51.3226 35.1098 49.8499C35.1098 48.1645 35.8188 46.5675 37.0593 45.3566C37.4455 47.4621 38.5353 49.4761 40.1792 51.0582C42.2248 53.0269 44.9306 54.1675 47.8523 54.3048C46.4806 55.6551 44.5176 56.4668 42.4399 56.4668Z" fill="white"/>
<path d="M48.3986 44.7598C48.981 44.7598 49.4532 44.2876 49.4532 43.7051C49.4532 43.1226 48.981 42.6504 48.3986 42.6504C47.8161 42.6504 47.3439 43.1226 47.3439 43.7051C47.3439 44.2876 47.8161 44.7598 48.3986 44.7598Z" fill="white"/>
<path d="M52.6173 44.7598C53.1998 44.7598 53.672 44.2876 53.672 43.7051C53.672 43.1226 53.1998 42.6504 52.6173 42.6504C52.0348 42.6504 51.5626 43.1226 51.5626 43.7051C51.5626 44.2876 52.0348 44.7598 52.6173 44.7598Z" fill="white"/>
<path d="M44.1798 44.7598C44.7623 44.7598 45.2345 44.2876 45.2345 43.7051C45.2345 43.1226 44.7623 42.6504 44.1798 42.6504C43.5973 42.6504 43.1251 43.1226 43.1251 43.7051C43.1251 44.2876 43.5973 44.7598 44.1798 44.7598Z" fill="white"/>
</g>
<defs>
<filter id="filter0_d" x="0" y="0" width="94" height="94" filterUnits="userSpaceOnUse" color-interpolation-filters="sRGB">
<feFlood flood-opacity="0" result="BackgroundImageFix"/>
<feColorMatrix in="SourceAlpha" type="matrix" values="0 0 0 0 0 0 0 0 0 0 0 0 0 0 0 0 0 0 127 0"/>
<feMorphology radius="1" operator="dilate" in="SourceAlpha" result="effect1_dropShadow"/>
<feOffset/>
<feGaussianBlur stdDeviation="8.5"/>
<feColorMatrix type="matrix" values="0 0 0 0 1 0 0 0 0 0.196536 0 0 0 0 0.41785 0 0 0 0.34 0"/>
<feBlend mode="normal" in2="BackgroundImageFix" result="effect1_dropShadow"/>
<feBlend mode="normal" in="SourceGraphic" in2="effect1_dropShadow" result="shape"/>
</filter>
<clipPath id="clip0">
<rect width="27" height="27" fill="white" transform="translate(33 33)"/>
</clipPath>
</defs>
</svg>
