<svg width="94" height="94" viewBox="0 0 94 94" fill="none" xmlns="http://www.w3.org/2000/svg">
<g filter="url(#filter0_d)">
<circle cx="47" cy="47" r="29" fill="#FD435A"/>
</g>
<path d="M46.5 35C40.1487 35 35 40.1487 35 46.5C35 52.8512 40.1487 58 46.5 58C52.8512 58 58 52.8512 58 46.5C57.9932 40.1516 52.8484 35.0068 46.5 35ZM46.5 56.3571C41.056 56.3571 36.6428 51.9439 36.6428 46.5C36.6428 41.056 41.056 36.6428 46.5 36.6428C51.9439 36.6428 56.3571 41.056 56.3571 46.5C56.3512 51.9415 51.9415 56.3512 46.5 56.3571Z" fill="white"/>
<path d="M46.5 39.1072C46.0463 39.1072 45.6785 39.4749 45.6785 39.9286V45.6786H39.9286C39.4749 45.6786 39.1071 46.0464 39.1071 46.5001C39.1071 46.9538 39.4749 47.3215 39.9286 47.3215H46.5C46.9536 47.3215 47.3214 46.9537 47.3214 46.5V39.9286C47.3214 39.4749 46.9536 39.1072 46.5 39.1072Z" fill="white"/>
<defs>
<filter id="filter0_d" x="0" y="0" width="94" height="94" filterUnits="userSpaceOnUse" color-interpolation-filters="sRGB">
<feFlood flood-opacity="0" result="BackgroundImageFix"/>
<feColorMatrix in="SourceAlpha" type="matrix" values="0 0 0 0 0 0 0 0 0 0 0 0 0 0 0 0 0 0 127 0"/>
<feMorphology radius="1" operator="dilate" in="SourceAlpha" result="effect1_dropShadow"/>
<feOffset/>
<feGaussianBlur stdDeviation="8.5"/>
<feColorMatrix type="matrix" values="0 0 0 0 1 0 0 0 0 0.196536 0 0 0 0 0.41785 0 0 0 0.34 0"/>
<feBlend mode="normal" in2="BackgroundImageFix" result="effect1_dropShadow"/>
<feBlend mode="normal" in="SourceGraphic" in2="effect1_dropShadow" result="shape"/>
</filter>
</defs>
</svg>
