<svg width="122" height="571" viewBox="0 0 122 571" fill="none" xmlns="http://www.w3.org/2000/svg">
<line x1="101" y1="20" x2="101" y2="544" stroke="url(#paint0_linear)" stroke-width="2"/>
<g filter="url(#filter0_d)">
<circle cx="100" cy="24" r="14" fill="#FD435A"/>
</g>
<g filter="url(#filter1_d)">
<circle cx="100" cy="289" r="14" fill="#FD435A"/>
</g>
<g filter="url(#filter2_d)">
<circle cx="100" cy="543" r="14" fill="#FD435A"/>
</g>
<path d="M12.78 38.432C10.452 38.432 8.46 37.892 6.804 36.812C5.148 35.708 3.864 34.184 2.952 32.24C2.064 30.272 1.62 27.992 1.62 25.4C1.62 22.832 2.064 20.564 2.952 18.596C3.864 16.628 5.148 15.104 6.804 14.024C8.46 12.92 10.452 12.368 12.78 12.368C15.108 12.368 17.1 12.92 18.756 14.024C20.412 15.104 21.684 16.628 22.572 18.596C23.484 20.564 23.94 22.832 23.94 25.4C23.94 27.992 23.484 30.272 22.572 32.24C21.684 34.184 20.412 35.708 18.756 36.812C17.1 37.892 15.108 38.432 12.78 38.432ZM12.78 34.292C14.676 34.292 16.224 33.5 17.424 31.916C18.624 30.332 19.224 28.16 19.224 25.4C19.224 22.64 18.624 20.468 17.424 18.884C16.224 17.3 14.676 16.508 12.78 16.508C10.86 16.508 9.3 17.3 8.1 18.884C6.924 20.468 6.336 22.64 6.336 25.4C6.336 28.16 6.924 30.332 8.1 31.916C9.3 33.5 10.86 34.292 12.78 34.292ZM30.7426 38V18.056L26.6026 19.028V15.5L32.6866 12.8H35.5306V38H30.7426Z" fill="white"/>
<path d="M12.78 303.432C10.452 303.432 8.46 302.892 6.804 301.812C5.148 300.708 3.864 299.184 2.952 297.24C2.064 295.272 1.62 292.992 1.62 290.4C1.62 287.832 2.064 285.564 2.952 283.596C3.864 281.628 5.148 280.104 6.804 279.024C8.46 277.92 10.452 277.368 12.78 277.368C15.108 277.368 17.1 277.92 18.756 279.024C20.412 280.104 21.684 281.628 22.572 283.596C23.484 285.564 23.94 287.832 23.94 290.4C23.94 292.992 23.484 295.272 22.572 297.24C21.684 299.184 20.412 300.708 18.756 301.812C17.1 302.892 15.108 303.432 12.78 303.432ZM12.78 299.292C14.676 299.292 16.224 298.5 17.424 296.916C18.624 295.332 19.224 293.16 19.224 290.4C19.224 287.64 18.624 285.468 17.424 283.884C16.224 282.3 14.676 281.508 12.78 281.508C10.86 281.508 9.3 282.3 8.1 283.884C6.924 285.468 6.336 287.64 6.336 290.4C6.336 293.16 6.924 295.332 8.1 296.916C9.3 298.5 10.86 299.292 12.78 299.292ZM27.2188 303V299.652C28.7548 298.38 30.2428 297.12 31.6828 295.872C33.1468 294.624 34.4428 293.388 35.5708 292.164C36.7228 290.94 37.6348 289.752 38.3068 288.6C39.0028 287.424 39.3508 286.284 39.3508 285.18C39.3508 284.148 39.0628 283.236 38.4868 282.444C37.9348 281.652 37.0108 281.256 35.7148 281.256C34.3948 281.256 33.3988 281.688 32.7268 282.552C32.0548 283.416 31.7188 284.46 31.7188 285.684H27.2548C27.3028 283.836 27.7108 282.3 28.4788 281.076C29.2468 279.828 30.2668 278.904 31.5388 278.304C32.8108 277.68 34.2388 277.368 35.8228 277.368C38.3908 277.368 40.3828 278.076 41.7988 279.492C43.2388 280.884 43.9588 282.696 43.9588 284.928C43.9588 286.32 43.6348 287.676 42.9868 288.996C42.3628 290.316 41.5348 291.588 40.5028 292.812C39.4708 294.036 38.3548 295.188 37.1548 296.268C35.9548 297.324 34.7908 298.308 33.6628 299.22H44.5708V303H27.2188Z" fill="white"/>
<path d="M12.78 557.432C10.452 557.432 8.46 556.892 6.804 555.812C5.148 554.708 3.864 553.184 2.952 551.24C2.064 549.272 1.62 546.992 1.62 544.4C1.62 541.832 2.064 539.564 2.952 537.596C3.864 535.628 5.148 534.104 6.804 533.024C8.46 531.92 10.452 531.368 12.78 531.368C15.108 531.368 17.1 531.92 18.756 533.024C20.412 534.104 21.684 535.628 22.572 537.596C23.484 539.564 23.94 541.832 23.94 544.4C23.94 546.992 23.484 549.272 22.572 551.24C21.684 553.184 20.412 554.708 18.756 555.812C17.1 556.892 15.108 557.432 12.78 557.432ZM12.78 553.292C14.676 553.292 16.224 552.5 17.424 550.916C18.624 549.332 19.224 547.16 19.224 544.4C19.224 541.64 18.624 539.468 17.424 537.884C16.224 536.3 14.676 535.508 12.78 535.508C10.86 535.508 9.3 536.3 8.1 537.884C6.924 539.468 6.336 541.64 6.336 544.4C6.336 547.16 6.924 549.332 8.1 550.916C9.3 552.5 10.86 553.292 12.78 553.292ZM36.2506 557.432C34.5946 557.432 33.0946 557.144 31.7506 556.568C30.4066 555.968 29.3266 555.056 28.5106 553.832C27.6946 552.608 27.2626 551.072 27.2146 549.224H31.7506C31.7746 550.448 32.1706 551.48 32.9386 552.32C33.7306 553.136 34.8346 553.544 36.2506 553.544C37.5946 553.544 38.6266 553.172 39.3466 552.428C40.0666 551.684 40.4266 550.748 40.4266 549.62C40.4266 548.3 39.9466 547.304 38.9866 546.632C38.0506 545.936 36.8386 545.588 35.3506 545.588H33.4786V541.808H35.3866C36.6106 541.808 37.6306 541.52 38.4466 540.944C39.2626 540.368 39.6706 539.516 39.6706 538.388C39.6706 537.452 39.3586 536.708 38.7346 536.156C38.1346 535.58 37.2946 535.292 36.2146 535.292C35.0386 535.292 34.1146 535.64 33.4426 536.336C32.7946 537.032 32.4346 537.884 32.3626 538.892H27.8626C27.9586 536.564 28.7626 534.728 30.2746 533.384C31.8106 532.04 33.7906 531.368 36.2146 531.368C37.9426 531.368 39.3946 531.68 40.5706 532.304C41.7706 532.904 42.6706 533.708 43.2706 534.716C43.8946 535.724 44.2066 536.84 44.2066 538.064C44.2066 539.48 43.8106 540.68 43.0186 541.664C42.2506 542.624 41.2906 543.272 40.1386 543.608C41.5546 543.896 42.7066 544.592 43.5946 545.696C44.4826 546.776 44.9266 548.144 44.9266 549.8C44.9266 551.192 44.5906 552.464 43.9186 553.616C43.2466 554.768 42.2626 555.692 40.9666 556.388C39.6946 557.084 38.1226 557.432 36.2506 557.432Z" fill="white"/>
<defs>
<filter id="filter0_d" x="78" y="2" width="44" height="44" filterUnits="userSpaceOnUse" color-interpolation-filters="sRGB">
<feFlood flood-opacity="0" result="BackgroundImageFix"/>
<feColorMatrix in="SourceAlpha" type="matrix" values="0 0 0 0 0 0 0 0 0 0 0 0 0 0 0 0 0 0 127 0"/>
<feMorphology radius="8" operator="dilate" in="SourceAlpha" result="effect1_dropShadow"/>
<feOffset/>
<feColorMatrix type="matrix" values="0 0 0 0 1 0 0 0 0 0.796112 0 0 0 0 0.799689 0 0 0 0.13 0"/>
<feBlend mode="normal" in2="BackgroundImageFix" result="effect1_dropShadow"/>
<feBlend mode="normal" in="SourceGraphic" in2="effect1_dropShadow" result="shape"/>
</filter>
<filter id="filter1_d" x="78" y="267" width="44" height="44" filterUnits="userSpaceOnUse" color-interpolation-filters="sRGB">
<feFlood flood-opacity="0" result="BackgroundImageFix"/>
<feColorMatrix in="SourceAlpha" type="matrix" values="0 0 0 0 0 0 0 0 0 0 0 0 0 0 0 0 0 0 127 0"/>
<feMorphology radius="8" operator="dilate" in="SourceAlpha" result="effect1_dropShadow"/>
<feOffset/>
<feColorMatrix type="matrix" values="0 0 0 0 1 0 0 0 0 0.796112 0 0 0 0 0.799689 0 0 0 0.13 0"/>
<feBlend mode="normal" in2="BackgroundImageFix" result="effect1_dropShadow"/>
<feBlend mode="normal" in="SourceGraphic" in2="effect1_dropShadow" result="shape"/>
</filter>
<filter id="filter2_d" x="78" y="521" width="44" height="44" filterUnits="userSpaceOnUse" color-interpolation-filters="sRGB">
<feFlood flood-opacity="0" result="BackgroundImageFix"/>
<feColorMatrix in="SourceAlpha" type="matrix" values="0 0 0 0 0 0 0 0 0 0 0 0 0 0 0 0 0 0 127 0"/>
<feMorphology radius="8" operator="dilate" in="SourceAlpha" result="effect1_dropShadow"/>
<feOffset/>
<feColorMatrix type="matrix" values="0 0 0 0 1 0 0 0 0 0.796112 0 0 0 0 0.799689 0 0 0 0.13 0"/>
<feBlend mode="normal" in2="BackgroundImageFix" result="effect1_dropShadow"/>
<feBlend mode="normal" in="SourceGraphic" in2="effect1_dropShadow" result="shape"/>
</filter>
<linearGradient id="paint0_linear" x1="100" y1="12.2799" x2="99.9986" y2="549.79" gradientUnits="userSpaceOnUse">
<stop stop-color="white"/>
<stop offset="1" stop-color="white" stop-opacity="0"/>
</linearGradient>
</defs>
</svg>
